<?xml version="1.0" encoding="utf-8"?>
<!-- Generator: Adobe Illustrator 17.0.0, SVG Export Plug-In . SVG Version: 6.00 Build 0)  -->
<!DOCTYPE svg PUBLIC "-//W3C//DTD SVG 1.1//EN" "http://www.w3.org/Graphics/SVG/1.1/DTD/svg11.dtd">
<svg version="1.1" id="mat_x5F_avulsa" xmlns="http://www.w3.org/2000/svg" xmlns:xlink="http://www.w3.org/1999/xlink" x="0px"
	 y="0px" width="500px" height="500px" viewBox="0 0 500 500" enable-background="new 0 0 500 500" xml:space="preserve">
<g>
	
		<path fill="#26BD79" stroke="#223E5C" stroke-width="20" stroke-linecap="round" stroke-linejoin="round" stroke-miterlimit="10" d="
		M388.419,373.311L220.556,320.15l-29.243,15.176c0,0,70.247-221.817,70.247-221.817c3.884-12.266,16.977-19.06,29.243-15.176
		l167.863,53.161L388.419,373.311z"/>
	<path fill="#B6C2CB" d="M374.352,417.73l-167.863-53.161c-12.266-3.884-19.06-16.977-15.176-29.243
		c3.885-12.266,16.977-19.06,29.243-15.176l167.863,53.161L374.352,417.73z"/>
	<path fill="none" stroke="#223E5C" stroke-width="20" stroke-linecap="round" stroke-linejoin="round" stroke-miterlimit="10" d="
		M374.352,417.73l-167.863-53.161c-12.266-3.884-19.06-16.977-15.176-29.243c3.885-12.266,16.977-19.06,29.243-15.176
		l167.863,53.161"/>
	
		<line fill="none" stroke="#223E5C" stroke-width="10" stroke-linecap="round" stroke-linejoin="round" stroke-miterlimit="10" x1="381.322" y1="395.723" x2="215.567" y2="343.23"/>
	
		<line fill="none" stroke="#223E5C" stroke-width="10" stroke-linecap="round" stroke-linejoin="round" stroke-miterlimit="10" x1="220.556" y1="320.15" x2="290.803" y2="98.333"/>
	
		<line fill="none" stroke="#E1DC54" stroke-width="20" stroke-linecap="round" stroke-linejoin="round" stroke-miterlimit="10" x1="313.942" y1="157.728" x2="399.909" y2="184.953"/>
	
		<line fill="none" stroke="#F2F4F5" stroke-width="10" stroke-linecap="round" stroke-linejoin="round" stroke-miterlimit="10" x1="303.951" y1="189.275" x2="389.918" y2="216.5"/>
	
		<line fill="none" stroke="#F2F4F5" stroke-width="10" stroke-linecap="round" stroke-linejoin="round" stroke-miterlimit="10" x1="299.705" y1="202.683" x2="385.672" y2="229.907"/>
	
		<line fill="none" stroke="#F2F4F5" stroke-width="10" stroke-linecap="round" stroke-linejoin="round" stroke-miterlimit="10" x1="295.459" y1="216.09" x2="381.426" y2="243.315"/>
	
		<path fill="#2B629D" stroke="#223E5C" stroke-width="20" stroke-linecap="round" stroke-linejoin="round" stroke-miterlimit="10" d="
		M287.984,352.155l-205.06,11.984l-25.545,28.716c0,0-15.836-270.97-15.836-270.97c-0.876-14.984,10.561-27.841,25.545-28.716
		l205.06-11.984L287.984,352.155z"/>
	<path fill="#B6C2CB" d="M291.156,406.417l-205.06,11.984c-14.984,0.876-27.841-10.561-28.716-25.545
		c-0.876-14.984,10.561-27.841,25.545-28.716l205.06-11.984L291.156,406.417z"/>
	<path fill="none" stroke="#223E5C" stroke-width="20" stroke-linecap="round" stroke-linejoin="round" stroke-miterlimit="10" d="
		M291.156,406.417l-205.06,11.984c-14.984,0.876-27.841-10.561-28.716-25.545c-0.876-14.984,10.561-27.841,25.545-28.716
		l205.06-11.984"/>
	
		<line fill="none" stroke="#223E5C" stroke-width="10" stroke-linecap="round" stroke-linejoin="round" stroke-miterlimit="10" x1="289.584" y1="379.533" x2="87.1" y2="391.367"/>
	
		<line fill="none" stroke="#223E5C" stroke-width="10" stroke-linecap="round" stroke-linejoin="round" stroke-miterlimit="10" x1="82.924" y1="364.139" x2="67.088" y2="93.17"/>
	
		<line fill="none" stroke="#E1DC54" stroke-width="20" stroke-linecap="round" stroke-linejoin="round" stroke-miterlimit="10" x1="117.039" y1="148.255" x2="222.055" y2="142.117"/>
	
		<line fill="none" stroke="#F2F4F5" stroke-width="10" stroke-linecap="round" stroke-linejoin="round" stroke-miterlimit="10" x1="119.292" y1="186.793" x2="224.308" y2="180.655"/>
	
		<line fill="none" stroke="#F2F4F5" stroke-width="10" stroke-linecap="round" stroke-linejoin="round" stroke-miterlimit="10" x1="120.249" y1="203.171" x2="225.265" y2="197.034"/>
	
		<line fill="none" stroke="#F2F4F5" stroke-width="10" stroke-linecap="round" stroke-linejoin="round" stroke-miterlimit="10" x1="121.206" y1="219.55" x2="226.222" y2="213.413"/>
</g>
</svg>
